HIERARCHY
ROOT SpineBase
{
  OFFSET 0.000000 0.000000 0.000000
  CHANNELS 6 Xposition Yposition Zposition Zrotation Xrotation Yrotation
  JOINT SpineMid
  {
    OFFSET 0.000000 31.328607 0.000000
    CHANNELS 3 Zrotation Xrotation Yrotation
    JOINT SpineShoulder
    {
      OFFSET -0.174593 23.304580 -0.813334
      CHANNELS 3 Zrotation Xrotation Yrotation
      JOINT Neck
      {
        OFFSET -0.106546 7.742283 -0.610657
        CHANNELS 3 Zrotation Xrotation Yrotation
        JOINT Head
        {
          OFFSET -5.318015 12.998759 3.046972
          CHANNELS 3 Zrotation Xrotation Yrotation
          End Site
          {
            OFFSET 0 0 0
          }
        }
      }
      JOINT ShoulderLeft
      {
        OFFSET -9.450669 -2.828496 16.315176
        CHANNELS 3 Zrotation Xrotation Yrotation
        JOINT ElbowLeft
        {
          OFFSET -4.026995 -25.465975 0.152274
          CHANNELS 3 Zrotation Xrotation Yrotation
          JOINT WristLeft
          {
            OFFSET -15.323983 -16.256570 -16.187376
            CHANNELS 3 Zrotation Xrotation Yrotation
            JOINT HandLeft
            {
              OFFSET -0.991268 -3.374334 -1.927298
              CHANNELS 3 Zrotation Xrotation Yrotation
              JOINT HandTipLeft
              {
                OFFSET -0.592733 -4.996382 -6.491867
                CHANNELS 3 Zrotation Xrotation Yrotation
                End Site
                {
                  OFFSET 0 0 0
                }
              }
              JOINT ThumbLeft
              {
                OFFSET -4.259593 -3.755196 2.751456
                CHANNELS 3 Zrotation Xrotation Yrotation
                End Site
                {
                  OFFSET 0 0 0
                }
              }
            }
          }
        }
      }
      JOINT ShoulderRight
      {
        OFFSET 7.986941 -2.163288 -13.553708
        CHANNELS 3 Zrotation Xrotation Yrotation
        JOINT ElbowRight
        {
          OFFSET 5.707643 -20.448169 -9.286132
          CHANNELS 3 Zrotation Xrotation Yrotation
          JOINT WristRight
          {
            OFFSET -17.982811 -18.718467 -2.840260
            CHANNELS 3 Zrotation Xrotation Yrotation
            JOINT HandRight
            {
              OFFSET -8.283298 -6.958619 -0.407589
              CHANNELS 3 Zrotation Xrotation Yrotation
              JOINT HandTipRight
              {
                OFFSET -4.191247 -6.761193 -2.243357
                CHANNELS 3 Zrotation Xrotation Yrotation
                End Site
                {
                  OFFSET 0 0 0
                }
              }
              JOINT ThumbRight
              {
                OFFSET -4.634456 5.448137 -2.148544
                CHANNELS 3 Zrotation Xrotation Yrotation
                End Site
                {
                  OFFSET 0 0 0
                }
              }
            }
          }
        }
      }
    }
  }
  JOINT HipLeft
  {
    OFFSET -5.307766 -0.977106 2.473163
    CHANNELS 3 Zrotation Xrotation Yrotation
    JOINT KneeLeft
    {
      OFFSET -4.673808 -31.484553 3.688172
      CHANNELS 3 Zrotation Xrotation Yrotation
      JOINT AnkleLeft
      {
        OFFSET -6.262382 -30.575726 1.061477
        CHANNELS 3 Zrotation Xrotation Yrotation
        JOINT FootLeft
        {
          OFFSET -7.495312 -2.101599 -7.561202
          CHANNELS 3 Zrotation Xrotation Yrotation
          End Site
          {
            OFFSET 0 0 0
          }
        }
      }
    }
  }
  JOINT HipRight
  {
    OFFSET 4.145438 3.152093 -9.379947
    CHANNELS 3 Zrotation Xrotation Yrotation
    JOINT KneeRight
    {
      OFFSET 3.860721 -27.213237 -3.132141
      CHANNELS 3 Zrotation Xrotation Yrotation
      JOINT AnkleRight
      {
        OFFSET 2.988688 -34.410587 11.400488
        CHANNELS 3 Zrotation Xrotation Yrotation
        JOINT FootRight
        {
          OFFSET -7.764327 -2.120518 -7.530688
          CHANNELS 3 Zrotation Xrotation Yrotation
          End Site
          {
            OFFSET 0 0 0
          }
        }
      }
    }
  }
}
MOTION
Frames: 9
Frame Time: 0.033333
51.107475 69.571447 323.396091 -0.000000 0.000000 51.426609 0.000000 0.000000 -51.426609 -0.000000 0.000000 0.000000 -0.000000 0.000000 0.000000 0.000000 0.000000 0.000000 -0.000000 0.000000 0.000000 -0.000000 0.000000 0.000000 -0.000000 0.000000 0.000000 -0.000000 0.000000 0.000000 0.000000 0.000000 0.000000 0.000000 0.000000 0.000000 -0.000000 0.000000 0.000000 -0.000000 0.000000 0.000000 -0.000000 0.000000 0.000000 -0.000000 0.000000 0.000000 0.000000 0.000000 0.000000 0.000000 0.000000 0.000000 0.000000 0.000000 -51.426609 -0.000000 0.000000 0.000000 -0.000000 0.000000 0.000000 0.000000 0.000000 0.000000 0.000000 0.000000 -51.426609 -0.000000 0.000000 0.000000 -0.000000 0.000000 0.000000 0.000000 0.000000 0.000000
50.904598 69.600777 323.475140 -0.057454 -0.106192 51.684443 0.118940 0.020759 -51.684517 -0.000000 0.000000 0.000000 -0.000000 0.000000 0.000000 0.000000 0.000000 0.000000 -0.000000 0.000000 0.000000 0.462021 0.305057 -0.749696 -8.932219 4.913313 4.165212 8.724827 -2.909513 -3.552503 0.000000 0.000000 0.000000 0.000000 0.000000 0.000000 -1.569317 -0.704098 0.509909 1.575635 0.689841 -0.529038 -0.000000 0.000000 0.000000 -1.524245 0.685749 0.088886 0.000000 0.000000 0.000000 0.000000 0.000000 0.000000 0.118940 0.020759 -51.684517 -0.000000 0.000000 0.000000 -0.000000 0.000000 0.000000 0.000000 0.000000 0.000000 0.118940 0.020759 -51.684517 -0.000000 0.000000 0.000000 -0.000000 0.000000 0.000000 0.000000 0.000000 0.000000
50.723541 69.622226 323.540584 -0.097929 -0.202447 51.931998 0.219765 0.047730 -51.932263 -0.000000 0.000000 0.000000 -0.000000 0.000000 0.000000 0.000000 0.000000 0.000000 -0.096999 -0.896760 0.140445 1.074597 1.202100 -1.427326 -15.889338 8.496751 7.568728 14.945838 -5.716344 -5.268368 0.000000 0.000000 0.000000 0.000000 0.000000 0.000000 -3.088044 -1.373066 0.995303 3.112249 1.317235 -1.068101 -0.609368 0.419097 -0.457960 -2.180727 0.682326 0.695095 0.000000 0.000000 0.000000 0.000000 0.000000 0.000000 0.219765 0.047730 -51.932263 -0.000000 0.000000 0.000000 -0.000000 0.000000 0.000000 0.000000 0.000000 0.000000 0.219765 0.047730 -51.932263 0.916395 0.656774 0.355834 -0.920515 -0.650986 -0.366316 0.000000 0.000000 0.000000
50.564305 69.635794 323.592423 -0.121457 -0.288791 52.169652 0.302589 0.081192 -52.170173 -0.000000 0.000000 0.000000 -0.000000 0.000000 0.000000 0.000000 0.000000 0.000000 -0.119435 -1.258123 0.196887 1.653661 1.222016 -1.747044 -21.187885 11.433146 10.166817 19.158148 -8.375442 -5.815692 0.000000 0.000000 0.000000 0.000000 0.000000 0.000000 -4.556452 -2.004758 1.458620 5.525883 1.954548 -1.880219 -1.175866 0.456914 -0.414644 -3.559232 0.715341 1.094625 0.000000 0.000000 0.000000 0.000000 0.000000 0.000000 0.302589 0.081192 -52.170173 -0.000000 0.000000 0.000000 -0.000000 0.000000 0.000000 0.000000 0.000000 0.000000 0.302589 0.081192 -52.170173 1.275051 0.886186 0.490340 -1.282737 -0.875022 -0.509997 0.000000 0.000000 0.000000
50.426889 69.641480 323.630656 -0.128066 -0.365248 52.397741 0.367516 0.121401 -52.398538 -0.000000 0.000000 0.000000 -0.000000 0.000000 0.000000 0.000000 0.000000 0.000000 -0.124687 -1.561174 0.244381 2.250531 0.809986 -1.741557 -25.184287 14.218962 12.058553 21.802965 -11.042657 -5.598577 0.000000 0.000000 0.000000 0.000000 0.000000 0.000000 -5.975114 -2.597320 1.902385 7.444478 2.334531 -2.436739 -0.803522 0.625900 -0.579173 -5.211659 0.583310 1.502258 0.000000 0.000000 0.000000 0.000000 0.000000 0.000000 1.179019 -0.411012 -52.336194 -0.917311 -0.317083 -0.062831 -0.000000 0.000000 0.000000 0.000000 0.000000 0.000000 0.367516 0.121401 -52.398538 1.567205 1.048311 0.597068 -1.578299 -1.031530 -0.625615 0.000000 0.000000 0.000000
50.311294 69.639285 323.655283 -0.117783 -0.431837 52.616563 0.414646 0.168597 -52.617617 -0.000000 0.000000 0.000000 -0.676644 0.410131 0.329343 0.000000 0.000000 0.000000 -0.112873 -1.805758 0.283047 2.862326 -0.053376 -1.369961 -28.155720 17.175943 13.351097 23.196577 -13.915391 -4.832285 0.000000 0.000000 0.000000 0.000000 0.000000 0.000000 -7.344856 -3.149149 2.329179 9.397095 2.575343 -2.952921 -0.053703 0.781528 -0.739541 -7.120355 0.302809 1.909760 0.000000 0.000000 0.000000 0.000000 0.000000 0.000000 1.329247 -0.451234 -52.544514 -1.048244 -0.349097 -0.074041 -0.000000 0.000000 0.000000 0.000000 0.000000 0.000000 0.414646 0.168597 -52.617617 1.792755 1.142417 0.676661 -1.806466 -1.120606 -0.712204 0.000000 0.000000 0.000000
50.209399 69.619676 323.676246 -0.105352 -0.496581 52.774193 0.459142 0.216519 -52.775517 -0.000000 0.000000 0.000000 -0.722987 0.642414 0.436904 0.000000 0.000000 0.000000 -0.070986 -1.950109 0.306710 3.697996 -1.479234 -0.758485 -30.671309 19.010372 14.545125 23.974208 -14.772562 -4.591362 0.000000 0.000000 0.000000 0.000000 0.000000 0.000000 -8.599193 -3.712563 2.692287 11.400259 2.703094 -3.367205 1.835915 0.802138 -0.796482 -10.076507 -0.232527 2.342361 0.000000 0.000000 0.000000 0.000000 0.000000 0.000000 1.449101 -0.484390 -52.691590 -1.157508 -0.362585 -0.085276 -0.000000 0.000000 0.000000 0.000000 0.000000 0.000000 0.459142 0.216519 -52.775517 1.943525 1.161167 0.726484 -1.958475 -1.135763 -0.765594 0.000000 0.000000 0.000000
50.164806 69.574032 323.732027 -0.038729 -0.612884 52.824238 0.511746 0.339479 -52.825962 -0.000000 0.000000 0.000000 -0.788612 1.008223 0.604738 0.000000 0.000000 0.000000 0.321009 -1.523577 0.247218 5.085770 -5.254074 1.028820 -32.523204 25.753455 14.570647 23.041042 -21.245553 -2.337206 0.000000 0.000000 0.000000 0.000000 0.000000 0.000000 -11.612422 -5.107199 3.515430 17.215020 3.280129 -5.103722 2.097525 1.247890 -1.156806 -13.544878 -1.248744 3.310644 0.000000 0.000000 0.000000 0.000000 0.000000 0.000000 1.619618 -0.403512 -52.741800 -1.262080 -0.431951 -0.088301 0.024206 -0.250378 0.812923 0.000000 0.000000 0.000000 0.511746 0.339479 -52.825962 1.979998 1.047986 0.730074 -1.974491 -1.266606 0.056537 0.000000 0.000000 0.000000
50.203497 69.586929 323.607881 0.142180 -0.508238 52.879046 0.319448 0.420089 -52.879586 -0.000000 0.000000 0.000000 -0.770476 1.448546 0.782825 0.000000 0.000000 0.000000 0.449933 -1.773910 0.290344 6.627014 -7.861316 2.454012 -36.327130 30.709519 16.430072 22.583080 -26.112084 -0.076221 0.000000 0.000000 0.000000 0.000000 0.000000 0.000000 -13.399031 -6.081932 3.920142 19.762306 3.595700 -5.812843 3.362748 1.758360 -1.887482 -17.664280 -1.083282 3.985759 0.000000 0.000000 0.000000 0.000000 0.000000 0.000000 1.480483 -0.561758 -52.753545 -1.484293 -0.329984 -0.128881 -1.253465 0.774265 1.652216 0.000000 0.000000 0.000000 0.319448 0.420089 -52.879586 1.971929 0.881449 0.715513 -1.939764 -1.151951 0.178514 0.000000 0.000000 0.000000
